Coordinates
version=1
nRows=22
nColumns=24
inDegrees=yes

Units are S.I. units (second, meters, Newtons, ...)
Angles are in degrees.

endheader
time	pelvis_tilt	pelvis_list	pelvis_rotation	pelvis_tx	pelvis_ty	pelvis_tz	hip_flexion_r	hip_adduction_r	hip_rotation_r	knee_angle_r	ankle_angle_r	subtalar_angle_r	mtp_angle_r	hip_flexion_l	hip_adduction_l	hip_rotation_l	knee_angle_l	ankle_angle_l	subtalar_angle_l	mtp_angle_l	lumbar_extension	lumbar_bending	lumbar_rotation
      1.40416667	     -3.26592878	      2.17718911	    -13.15012461	      0.99440315	      0.98342948	      0.27144675	    -15.74180954	     -2.41385839	      8.64606290	     -8.04883576	     11.18843839	     -3.55710475	     13.75536101	     26.42004749	     -2.56504800	    -12.86151269	      5.32078098	      4.56257356	    -11.06475498	      8.35972067	      0.68578597	     -1.65323847	     12.93208879
      1.40833333	     -3.24906967	      2.25122057	    -13.24000589	      1.00051040	      0.98290879	      0.27116616	    -15.90358275	     -2.59921507	      8.64030030	     -8.40631172	     10.99618042	     -3.55503844	     13.78216382	     26.42557071	     -2.50051951	    -12.90629342	      4.97970682	      4.70903558	    -11.24354141	      8.36060852	      0.71807836	     -1.77278968	     12.95299417
      1.41250000	     -3.18367494	      2.34190572	    -13.31687863	      1.00667265	      0.98245544	      0.27084682	    -16.09276836	     -2.81562970	      8.51125342	     -8.80839732	     10.85731428	     -3.35200297	     14.02420189	     26.38057490	     -2.39865717	    -12.88181204	      4.59365150	      4.82870458	    -11.48127404	      8.36682797	      0.71222696	     -1.93165214	     13.16877922
      1.41666667	     -3.15621349	      2.44612720	    -13.40023481	      1.01289406	      0.98198944	      0.27056523	    -16.24691978	     -3.03078959	      8.49113089	     -9.19619175	     10.63044963	     -3.36670021	     14.08082834	     26.37780571	     -2.29683362	    -12.88005395	      4.15259501	      4.94113821	    -11.65052188	      8.37127237	      0.76621298	     -2.09909049	     13.19640646
      1.42083333	     -3.11898592	      2.56003896	    -13.47165719	      1.01911992	      0.98155576	      0.27024025	    -16.39349415	     -3.25470930	      8.45649738	     -9.61371799	     10.38737514	     -3.36727793	     14.12895347	     26.37760495	     -2.17611702	    -12.85369680	      3.65828032	      4.98939039	    -11.82165242	      8.37591214	      0.77858578	     -2.27083835	     13.24855319
      1.42500000	     -3.02812020	      2.70147554	    -13.54005680	      1.02545758	      0.98119542	      0.26988437	    -16.56857319	     -3.52837199	      8.26956441	    -10.08201703	     10.20249954	     -3.11753954	     14.50078986	     26.28973375	     -1.99986122	    -12.75487860	      3.20310288	      4.94248482	    -12.14823332	      8.41485052	      0.77602559	     -2.49868995	     13.53039254
      1.42916667	     -2.95900903	      2.85345327	    -13.59298105	      1.03186222	      0.98083716	      0.26954347	    -16.73469219	     -3.79260126	      8.18785610	    -10.51936095	      9.86661367	     -3.28194076	     19.30354074	     26.21724131	     -1.80867954	    -12.56976406	      2.74148031	      4.81068093	    -12.54435548	      9.01567831	      0.79877512	     -2.74352558	     13.48641676
      1.43333333	     -2.91919433	      3.00644812	    -13.67076575	      1.03826114	      0.98048131	      0.26920190	    -16.83755009	     -4.05851924	      8.11425306	    -11.00873558	      9.52678948	     -3.25022519	     19.32201972	     26.21361049	     -1.64183601	    -12.56417319	      2.16508765	      4.77916124	    -12.66835674	      9.02136691	      0.87010739	     -2.95492229	     13.57806222
      1.43750000	     -2.86999946	      3.20066270	    -13.74519415	      1.04473357	      0.98013850	      0.26882195	    -16.90767009	     -4.37434677	      7.94893336	    -11.57355334	      9.27547782	     -3.05347826	     19.44556074	     26.18780791	     -1.42029594	    -12.49339175	      1.61844117	      4.60901650	    -12.88646001	      9.05697076	      0.92368486	     -3.22121581	     13.82204378
      1.44166667	     -2.81915429	      3.40268186	    -13.80195917	      1.05124515	      0.97983392	      0.26844655	    -16.98903019	     -4.68441585	      7.83881565	    -12.11630565	      8.91257955	     -3.05393750	     19.52501793	     26.15926193	     -1.18170826	    -12.40543371	      1.06574296	      4.42056006	    -13.07465207	      9.07888906	      0.99412011	     -3.51539935	     13.88922735
      1.44583333	     -2.75050218	      3.60419736	    -13.86124141	      1.05774757	      0.97956487	      0.26801081	    -17.03809466	     -5.00610285	      7.64402507	    -12.75627093	      8.61782433	     -2.88491824	     19.81213044	     26.09971364	     -0.92686245	    -12.23627386	      0.54669252	      4.05840017	    -13.49289863	      9.16020943	      1.03920725	     -3.77905474	     14.05521843
      1.45000000	     -2.70536077	      3.83450083	    -13.90150086	      1.06434054	      0.97930725	      0.26759816	    -17.08080862	     -5.33672476	      7.51963205	    -13.35025745	      8.17825994	     -2.91617142	     19.93527209	     26.08419567	     -0.65056122	    -12.14550727	     -0.02336365	      3.76903740	    -13.64398590	      9.19511464	      1.13290983	     -4.10437788	     14.10763022
      1.45416667	     -2.65822433	      4.07924834	    -13.93385598	      1.07095755	      0.97907216	      0.26714426	    -17.08898357	     -5.68311634	      7.34363372	    -14.01070550	      7.75013896	     -2.86425299	     20.09989470	     26.06367402	     -0.34895843	    -12.03547252	     -0.57486116	      3.39714290	    -13.87184329	      9.24029655	      1.23078575	     -4.43391197	     14.19792335
      1.45833333	     -2.58132729	      4.32720812	    -13.95715992	      1.07755185	      0.97887434	      0.26660421	    -17.07199910	     -6.04757378	      7.05804795	    -14.78155774	      7.42920350	     -2.64534904	     20.75725070	     25.99930458	     -0.01298926	    -11.75123637	     -1.09093616	      2.90808541	    -14.47535758	      9.43012920	      1.27724788	     -4.75438899	     14.34967097
      1.46250000	     -2.52123474	      4.56444518	    -13.96892851	      1.08419219	      0.97874139	      0.26611251	    -17.06486214	     -6.37674751	      6.89813974	    -15.49114093	      6.86576319	     -2.72751887	     20.85285815	     25.98878220	      0.28607751	    -11.72345674	     -1.69711175	      2.49992619	    -14.49951765	      9.45485599	      1.36796875	     -5.06415058	     14.36626904
      1.46666667	     -2.50785605	      4.85132408	    -13.98442805	      1.09084693	      0.97854115	      0.26556128	    -16.93778126	     -6.76240938	      6.65170069	    -16.30399718	      6.33084426	     -2.64980286	     27.07492561	     26.01032744	      0.63912836	    -11.55284699	     -2.23655795	      1.94574712	    -14.86443386	     11.21633229	      1.50853474	     -5.42362118	     14.39546524
      1.47083333	     -2.44032899	      5.14571823	    -13.98096787	      1.09756782	      0.97846252	      0.26502621	    -16.88026838	     -7.15301071	      6.43942480	    -17.10521423	      5.76743001	     -2.62187890	     27.09300468	     25.99430776	      1.00845859	    -11.51090962	     -2.83257554	      1.50991384	    -14.91583945	     11.22591193	      1.59651087	     -5.82050997	     14.46722695
      1.47500000	     -2.41199309	      5.44441525	    -13.98907287	      1.10422562	      0.97834728	      0.26442649	    -16.69480166	     -7.55445150	      6.16527240	    -18.06129968	      5.29408115	     -2.40059416	     27.18972791	     26.02290082	      1.37535473	    -11.41824544	     -3.42300485	      1.02085280	    -15.13003227	     11.25824059	      1.72628900	     -6.17660819	     14.56567893
      1.47916667	     -2.35224841	      5.74359429	    -13.94498456	      1.11090062	      0.97830227	      0.26378183	    -16.55904943	     -7.94285232	      5.88920778	    -18.99401677	      4.72851189	     -2.27735429	     27.34349049	     26.03459233	      1.76865685	    -11.30758743	     -4.04344197	      0.55066408	    -15.30989138	     11.30252035	      1.81871221	     -6.56563969	     14.60013540
      1.48333333	     -2.30247878	      6.04774698	    -13.90675276	      1.11760240	      0.97830669	      0.26317666	    -16.40007225	     -8.32802406	      5.67777152	    -19.93564540	      4.05388409	     -2.27053234	     27.41424333	     26.05153002	      2.15454366	    -11.25686708	     -4.66181110	      0.14879448	    -15.34290080	     11.32213700	      1.92308837	     -6.96911700	     14.62038868
      1.48750000	     -2.28557630	      6.35953716	    -13.86708683	      1.12423482	      0.97826350	      0.26247856	    -16.11822734	     -8.73192975	      5.38574054	    -21.03840448	      3.51755454	     -2.02877002	     27.63073814	     26.11987360	      2.54426987	    -11.19333460	     -5.30743236	     -0.27908385	    -15.48298749	     11.37620989	      2.07069952	     -7.33564478	     14.64231782
      1.49166667	     -2.21396733	      6.66144795	    -13.80338553	      1.13087240	      0.97835427	      0.26181296	    -15.92253293	     -9.11390637	      5.16979337	    -22.08378300	      2.80431688	     -2.00882806	     27.73136324	     26.13272075	      2.94068728	    -11.14429727	     -5.96934143	     -0.61491478	    -15.49039574	     11.39860280	      2.13565860	     -7.74370163	     14.65555568
